<svg xmlns="http://www.w3.org/2000/svg" xmlns:xlink="http://www.w3.org/1999/xlink" width="89" height="100" viewBox="0 0 89 100">
    <defs>
        <path id="b" d="M40.35 0C26.593 0 15.44 10.572 15.44 23.613c0 .52.47 7.557 2.303 10.73 6.164 13.396 22.584 28.165 22.609 28.113.022.077 16.512-14.78 22.646-28.189 2.141-4.328 2.266-10.4 2.266-10.654C65.263 10.574 54.11 0 40.351 0zm-.002 34.974c-5.506 0-9.97-4.473-9.97-9.99 0-5.516 4.465-9.99 9.97-9.99 5.506 0 9.97 4.474 9.97 9.99 0 5.517-4.464 9.99-9.97 9.99z"/>
        <filter id="a" width="234.5%" height="207.3%" x="-67.2%" y="-42.4%" filterUnits="objectBoundingBox">
            <feOffset dy="7" in="SourceAlpha" result="shadowOffsetOuter1"/>
            <feGaussianBlur in="shadowOffsetOuter1" result="shadowBlurOuter1" stdDeviation="10"/>
            <feColorMatrix in="shadowBlurOuter1" values="0 0 0 0 0 0 0 0 0 0 0 0 0 0 0 0 0 0 0.15 0"/>
        </filter>
    </defs>
    <g fill="none" fill-rule="nonzero">
        <path fill="#4ED5BD" d="M84 92.948L66.492 65.632l-44.864.052L4 92.948 44.195 93z"/>
        <g transform="translate(4 13)">
            <use fill="#000" filter="url(#a)" xlink:href="#b"/>
            <use fill="#FFDB83" xlink:href="#b"/>
        </g>
        <path fill="#F4A72B" d="M44 25.632c-6.975 0-12.632 5.653-12.632 12.631 0 6.98 5.657 12.632 12.632 12.632 6.98 0 12.632-5.654 12.632-12.632 0-6.975-5.652-12.631-12.632-12.631zm0 20.21a7.58 7.58 0 1 1 7.58-7.58 7.579 7.579 0 0 1-7.58 7.58z"/>
        <path fill="#26A6D1" d="M61.638 83.072c-3.135 1.393-9.904 2.532-12.573 2.522-2.3-.015-9.293-1.475-12.488-2.522-.306-.097-8.957-4.325-15.037-4.983-6.325-.675-7.518 0-7.518 0l-2.16 2.686L4 92.948 44.195 93 84 92.948l-10.754-16.79c-2.784 1.682-11.06 6.67-11.608 6.914z"/>
    </g>
</svg>
